<svg xmlns="http://www.w3.org/2000/svg" width="1200" height="400" viewBox="0 0 1200 400">
  <defs>
    <linearGradient id="bg" x1="0%" y1="0%" x2="100%" y2="0%">
      <stop offset="0%" style="stop-color:#9052F6;stop-opacity:1" />
      <stop offset="100%" style="stop-color:#6B3FBD;stop-opacity:1" />
    </linearGradient>
  </defs>

  <!-- Background -->
  <rect width="1200" height="400" fill="url(#bg)" rx="12" ry="12"/>

  <!-- M-shape icon (official paths scaled ~0.85x, translated to center-left area) -->
  <g transform="translate(100, 90) scale(0.85)">
    <path d="M28.69 62.0003C40.16 50.7903 59.47 58.9103 59.47 74.9503V143.44L142.59 62.1703C154.06 50.9603 173.37 59.0803 173.37 75.1203V143.44L211.52 106.13V31.7803C211.52 18.2703 200.57 7.32031 187.06 7.32031H24.96C11.45 7.32031 0.5 18.2703 0.5 31.7803V89.5603L28.7 61.9903L28.69 62.0003Z" fill="white"/>
    <path d="M183.03 163.501C171.56 174.711 152.25 166.591 152.25 150.551V82.2305L69.13 163.501C57.66 174.711 38.35 166.591 38.35 150.551V82.0605L0.47998 119.091V193.901C0.47998 207.411 11.43 218.361 24.94 218.361H187.04C200.55 218.361 211.5 207.411 211.5 193.901V135.661L183.02 163.511L183.03 163.501Z" fill="white"/>
  </g>

  <!-- Text block, vertically centered to the right of the icon -->
  <text
    x="430"
    y="185"
    font-family="'Helvetica Neue', Arial, sans-serif"
    font-weight="700"
    font-size="44"
    fill="white"
    dominant-baseline="middle"
    text-anchor="start"
  >Magnet Customer</text>

  <text
    x="430"
    y="245"
    font-family="'Helvetica Neue', Arial, sans-serif"
    font-weight="400"
    font-size="30"
    fill="white"
    fill-opacity="0.8"
    dominant-baseline="middle"
    text-anchor="start"
  >for n8n</text>
</svg>
